<svg width="25" height="32" viewBox="0 0 25 32" fill="none" xmlns="http://www.w3.org/2000/svg">
<path d="M19.0341 5.67831C17.2795 3.64035 15.3047 1.80521 13.1463 0.206824C12.9552 0.0722101 12.7276 0 12.4943 0C12.261 0 12.0334 0.0722101 11.8423 0.206824C9.68787 1.80588 7.71694 3.64099 5.96591 5.67831C2.06108 10.1884 0 14.9427 0 19.4284C0 22.7626 1.31696 25.9603 3.66117 28.3179C6.00537 30.6755 9.18479 32 12.5 32C15.8152 32 18.9946 30.6755 21.3388 28.3179C23.683 25.9603 25 22.7626 25 19.4284C25 14.9427 22.9389 10.1884 19.0341 5.67831ZM12.5 29.7143C9.78848 29.7112 7.18888 28.6266 5.27155 26.6983C3.35421 24.77 2.27574 22.1555 2.27273 19.4284C2.27273 11.2526 10.152 4.4283 12.5 2.57113C14.848 4.4283 22.7273 11.2498 22.7273 19.4284C22.7243 22.1555 21.6458 24.77 19.7285 26.6983C17.8111 28.6266 15.2115 29.7112 12.5 29.7143ZM20.4389 20.7627C20.1443 22.4181 19.3524 23.9428 18.1699 25.1318C16.9875 26.3208 15.4712 27.1168 13.8253 27.4128C13.7628 27.4227 13.6996 27.428 13.6364 27.4285C13.3513 27.4285 13.0767 27.3206 12.867 27.1265C12.6573 26.9323 12.5278 26.666 12.5042 26.3803C12.4806 26.0946 12.5646 25.8104 12.7396 25.5841C12.9146 25.3578 13.1677 25.2059 13.4489 25.1585C15.8026 24.7599 17.7997 22.7513 18.1989 20.3799C18.2493 20.0809 18.4158 19.8144 18.6617 19.6389C18.9076 19.4635 19.2127 19.3934 19.5099 19.4442C19.8072 19.4949 20.0722 19.6624 20.2467 19.9097C20.4212 20.1569 20.4908 20.4638 20.4403 20.7627H20.4389Z" fill="white"/>
</svg>
