<svg width="50" height="53" viewBox="0 0 50 53" fill="none" xmlns="http://www.w3.org/2000/svg">
<path d="M10.4167 0C8.39071 0 6.44773 0.808198 5.01516 2.2468C3.58259 3.6854 2.77778 5.63656 2.77778 7.67105V48.8158H2.08333C1.5308 48.8158 1.00089 49.0362 0.610194 49.4286C0.219493 49.8209 0 50.353 0 50.9079C0 51.4628 0.219493 51.9949 0.610194 52.3872C1.00089 52.7796 1.5308 53 2.08333 53H39.5833C40.1359 53 40.6658 52.7796 41.0565 52.3872C41.4472 51.9949 41.6667 51.4628 41.6667 50.9079C41.6667 50.353 41.4472 49.8209 41.0565 49.4286C40.6658 49.0362 40.1359 48.8158 39.5833 48.8158H38.8889V43.7864C40.0514 44.3865 41.348 44.6764 42.6543 44.6284C43.9605 44.5803 45.2325 44.1958 46.3482 43.5118C47.4638 42.8279 48.3856 41.8674 49.0251 40.7226C49.6646 39.5778 50.0003 38.2871 50 36.9745V20.6895C50 19.0297 49.4639 17.4147 48.4722 16.0869L45.4167 11.9947C45.0851 11.5508 44.5916 11.2574 44.0446 11.1789C43.4976 11.1005 42.942 11.2434 42.5 11.5763C42.058 11.9092 41.7657 12.4048 41.6876 12.9541C41.6095 13.5034 41.7518 14.0614 42.0833 14.5053L45.1389 18.5974C45.5889 19.1999 45.8333 19.9364 45.8333 20.6895V36.9745C45.8333 37.4305 45.7439 37.8821 45.5701 38.3035C45.3963 38.7248 45.1415 39.1077 44.8204 39.4302C44.4993 39.7527 44.118 40.0085 43.6984 40.183C43.2789 40.3575 42.8292 40.4474 42.375 40.4474C41.9208 40.4474 41.4711 40.3575 41.0516 40.183C40.632 40.0085 40.2507 39.7527 39.9296 39.4302C39.6085 39.1077 39.3537 38.7248 39.1799 38.3035C39.0061 37.8821 38.9167 37.4305 38.9167 36.9745V32.0789C38.9142 31.966 38.9049 31.8533 38.8889 31.7414V7.67105C38.8889 6.66368 38.6913 5.66616 38.3074 4.73547C37.9235 3.80477 37.3608 2.95912 36.6515 2.2468C35.9422 1.53448 35.1001 0.969431 34.1733 0.583924C33.2465 0.198418 32.2532 0 31.25 0H10.4167ZM11.1111 10.4605C11.1111 9.90567 11.3306 9.37353 11.7213 8.98118C12.112 8.58884 12.6419 8.36842 13.1944 8.36842H28.4722C29.0248 8.36842 29.5547 8.58884 29.9454 8.98118C30.3361 9.37353 30.5556 9.90567 30.5556 10.4605V20.2237C30.5556 20.7785 30.3361 21.3107 29.9454 21.703C29.5547 22.0954 29.0248 22.3158 28.4722 22.3158H13.1944C12.6419 22.3158 12.112 22.0954 11.7213 21.703C11.3306 21.3107 11.1111 20.7785 11.1111 20.2237V10.4605Z" fill="#F0634A"/>
</svg>
